<?xml version="1.0" encoding="UTF-8"?> <svg xmlns="http://www.w3.org/2000/svg" id="Layer_1" data-name="Layer 1" viewBox="0 0 200 200"><defs><style>.cls-1{fill:#fff;}</style></defs><path class="cls-1" d="M74.26,130.69c2.39,13.09,8.12,17.91,13.79,19.88a68.46,68.46,0,0,1-10-3.28c-6.38-12.23-4.47-15.81-12.64-23-.21,13.12,3.32,17.61,8.21,21a60.42,60.42,0,0,1-8.12-4.94c-3.18-10.05-.5-15.46-6.89-23.83-2.89,12.73-.25,17.33,3.18,20.94A63,63,0,0,1,55.17,131c-.45-13.07,2.54-12.84-1.61-22.49-4.59,10.15-3.76,14.7-1.18,19.07a53,53,0,0,1-4.21-6.31c.89-7.69,4.82-12.42,2.44-20.57-6,9.18-5.72,12.86-4.39,16.87a49.54,49.54,0,0,1-2.65-6.44c3.1-9,4.62-7.21,5.33-14.41a25.64,25.64,0,0,0,0-3.28c-6.49,7.11-6.83,10.31-6.46,14a52.82,52.82,0,0,1-1.18-5.61c3.62-6.62,6.69-7.6,7-14.79-6.85,5.88-7.15,8.54-7.43,11.25-.23-3.32-.18-2.08-.25-5.4,3.87-4.74,7.24-6.47,8-12.2-5.74,4.07-6.92,5.24-7.91,8.86.29-3.42.14-1.92.5-4.63,3.53-3.51,6.85-4.31,8.36-9.85-5,2.53-6.92,4.45-7.82,6.81.09-.49.73-3.18,1-3.88,4.89-3.53,7.08-3.54,9.35-8.63-6,2.24-7.13,3.51-8.43,5.72.83-2.36.49-1.49,1.44-3.81,4.31-2.45,7.49-2.69,9.82-7.06-4.91,1.43-7.15,2-9.13,5.48.67-1.52,1.47-3,2.26-4.43,4.68-1.82,6.87-2,9.18-5.14-3.48.68-6,1-8.07,3.27.32-.56,1.87-2.9,2.54-3.78,4-1.11,5.83-.84,8.58-4-4.64.49-5.43.72-7,1.93,2.2-2.69,1.18-1.45,2.79-3.25,3.65-.6,5.87-.23,8.58-2.89-4.49,0-5.35.16-6.87,1.11,1.48-1.45.19-.28,2.84-2.68,3.09-.29,5.31.53,8.39-1.94-3-.28-4.72-.49-6.55.39,1.44-1.16.23-.26,2.75-2.12,2.63.09,4.7.68,7.13-1.08-3.19-.45-3.88-.65-5.36-.16.83-.52,1.62-1.12,2.47-1.59,2.66.32,4.22.88,6.55-.52-3.22-.75-3.91-.75-4.79-.51.67-.4,1.34-.75,2-1.12,2.26.41,3.5,1,5.56-.14-2.56-.73-3-.78-3.74-.69,2.88-.77,5.54-.91,8-3.69-4.63.66-6.36.85-8.44,2.69l-.18.09c.9-.86.75-1.07,2.19-3.48-2.43.79-3,2.45-3.83,4.3-.69.36-1.39.73-2.06,1.13,1.16-1.25.88-1.41,2.45-4.33-2.77,1.07-3.25,2.9-4.23,5.4-.87.49-1.68,1.08-2.53,1.62,1-1.1.76-1.15,2.42-5-2.91,1.42-3.3,3.21-4.22,6.27-2.56,1.87-1.34,1-2.81,2.15,1.36-1.8,1-2.2,2.55-6.34C61,43,60.39,45.71,59.84,49.12c-2.7,2.43-1.37,1.24-2.89,2.71,1.25-2,.88-2.43,2.06-7-3.4,2.34-3.47,5.19-3.81,8.81A40.94,40.94,0,0,0,52.36,57c1.09-2.17.63-2.61,1.38-7.53-3.29,2.64-3,5.76-3,9.61-.69.89-2.26,3.28-2.6,3.84,1.19-3.55.46-3,.81-9.21-3.12,3.48-2.47,6.64-1.94,11.11-.81,1.49-1.6,3-2.29,4.51,1.53-4.68.65-4.47.42-11.48-3.39,4.3-2.54,7.81-1.13,13.07-1,2.36-.63,1.47-1.48,3.88.63-4.17-.64-5.33-1.29-10.9-3.23,4.82-1.57,9,.35,13.89-.23.71-.88,3.44-1,4-.07-5.4-1.3-5-2.64-10.91-2.48,5.19-.76,9.14,2.11,14-.35,2.72-.21,1.26-.51,4.72-.42-4.7-1.3-4.09-4.5-12.22C33,83.92,35.5,87.49,39.51,92.9c.07,3.38,0,2.13.25,5.51-1.35-5.77-3.16-5.79-7-13.28-1.63,7.39,2.17,12,7.46,16.89.13.72.51,3.16,1.2,5.72-3.21-7.32-4.64-6-10.22-14.16-.53,8.92,4,13.07,11.39,17.93A51.06,51.06,0,0,0,45.3,118c-5.88-8.4-5.84-5.2-14.3-14.11.44,4.49,2.89,10.32,6.73,12.77a58.23,58.23,0,0,0,9.56,5.1,55.76,55.76,0,0,0,4.29,6.41c-9-8.49-8.22-4.68-18.44-12.49,3.21,11.15,10.62,13.63,21.25,16a65.21,65.21,0,0,0,6.69,6.5c-11.35-7-10.68-3.6-23-9.61,2.54,5,8,10.36,13.59,11.44a60.24,60.24,0,0,0,13.24,1.09,62.65,62.65,0,0,0,8.26,5c-13.13-4.63-12.74-1.38-26.24-4.75,3.23,4,10.41,9,16.77,8.79a66.5,66.5,0,0,0,14-1.94,71.24,71.24,0,0,0,10.18,3.33c-15.09-1.67-15.76,1.89-28.72,1.26a32.54,32.54,0,0,0,6.32,3.62c8.85,3.79,14.88,2.16,27.42-3.78,4.8,1,12.25,2.82,15.81,6,1.34,1.31,3.9-2.83-15.58-7.06C81.61,138.35,86.5,138.33,74.26,130.69Z"></path><path class="cls-1" d="M140.88,152.83c-14.44.7-12.73-3-28.72-1.26a71.53,71.53,0,0,0,10.2-3.34c10.54,2.47,21.89,4.28,30.74-6.86-14.28,3.56-12.8,0-26.25,4.75a63.51,63.51,0,0,0,8.26-5c12.09.45,21.27-1.56,26.83-12.53-12.25,6-11.76,2.64-23,9.61a65.21,65.21,0,0,0,6.69-6.5c8.72-1.92,17.76-3.93,21.26-16-9.08,6.92-10,4.46-18.43,12.51a56.28,56.28,0,0,0,4.29-6.41c9-3.48,15.35-8.32,16.29-17.89-8.28,8.73-8.58,5.92-14.3,14.11a52.2,52.2,0,0,0,2.7-6.53c7.4-4.86,11.9-9.17,11.39-17.93-5.54,8.11-7,6.85-10.22,14.16.7-2.54,1.08-5,1.22-5.72,5.52-5.17,9.07-9.52,7.46-16.89-3.63,7.09-5.66,7.55-7,13.28.23-3.38.18-2.12.25-5.51,4.13-5.55,6.51-9.08,4.38-15.62-3.16,8-4.08,7.55-4.5,12.22-.3-3.46-.16-2-.52-4.72,3-5.14,4.49-9,2.11-14-1.38,6.11-2.58,5.48-2.65,10.9-.09-.49-.74-3.23-1-4,2-5.08,3.56-9.1.35-13.89-.65,5.57-1.92,6.73-1.29,10.9-.85-2.39-.51-1.52-1.48-3.88,1.39-5.15,2.19-8.85-1.13-13.06-.23,6.85-1.13,6.72.42,11.47-.69-1.53-1.48-3-2.29-4.5.54-4.6,1.18-7.64-1.95-11.11.34,6.16-.37,5.69.82,9.2-.32-.56-1.89-3-2.6-3.84.06-4,.28-7-3-9.61.73,4.87.29,5.36,1.38,7.53-2.24-2.71-1.2-1.47-2.84-3.3-.35-3.71-.37-6.45-3.81-8.81,1.14,4.41.79,5,2.06,7-1.53-1.5-.17-.26-2.89-2.71-.59-3.51-1.27-6.18-4.42-7.93,1.5,4.12,1.19,4.53,2.55,6.36-1.45-1.15-.27-.28-2.81-2.15-.92-3-1.29-4.85-4.22-6.27,1.61,3.74,1.43,3.9,2.42,5-.85-.54-1.64-1.13-2.53-1.62-.91-2.34-1.41-4.3-4.23-5.4,1.57,2.92,1.27,3.09,2.45,4.33-.67-.4-1.37-.77-2.06-1.13-.9-1.94-1.5-3.55-3.83-4.3a23.69,23.69,0,0,0,2,3.34c-2.47-1.77-4.88-3.67-8.42-2.9,4.31,2.29,4.49,3.28,7.9,3.89l.17.09c-.72-.1-1.16-.1-3.93.68,2,1.12,3.28.53,5.55.14.69.37,1.38.72,2,1.12-.88-.25-1.57-.25-4.78.51,2.38,1.43,3.92.83,6.55.52.87.49,1.66,1.07,2.47,1.59-1.32-.44-1.78-.35-5.37.16,2.37,1.71,4.12,1.17,7.14,1.08,2.52,1.85,1.32,1,2.75,2.11-1.38-.66-2.08-.78-6.53-.38,3.07,2.46,5.12,1.61,8.38,1.94a38.53,38.53,0,0,1,2.85,2.67c-1.47-.91-2.23-1.06-6.87-1.1,2.7,2.66,4.92,2.29,8.58,2.88,1.6,1.8.58.56,2.79,3.25-1.52-1.13-2.19-1.41-7-1.92,2.76,3.11,4.54,2.85,8.58,3.95.69.89,2.24,3.23,2.54,3.77-1.76-1.88-3.49-2.35-8.07-3.26,2.41,3.23,4.72,3.4,9.18,5.13.8,1.45,1.57,2.92,2.26,4.44-2-3.48-4.29-4.07-9.12-5.48,2.33,4.35,5.5,4.61,9.81,7,.95,2.33.62,1.45,1.45,3.81-1-1.71-1.87-3.23-8.44-5.71,2.28,5.1,4.33,5,9.36,8.63.23.7.86,3.39.95,3.88-.87-2.25-2.61-4.19-7.82-6.81,1.52,5.55,4.94,6.44,8.37,9.85.35,2.69.21,1.2.51,4.63-1-3.62-2.15-4.79-7.91-8.86.76,5.59,3.94,7.18,8,12.2-.07,3.32,0,2.07-.24,5.39-.34-3.12-.69-5.45-7.44-11.25.3,7.18,3.64,8.7,7,14.8-.14.72-.49,3.11-1.18,5.61.37-3.6.14-6.76-6.46-14-.93,7.5,2.74,10.26,5.31,17.7a50.5,50.5,0,0,1-2.64,6.43c1.76-5.34.51-9.4-4.4-16.86-2.42,8.28,1.52,12.48,2.44,20.57a65.12,65.12,0,0,1-4.2,6.3c2.5-4.26,3.4-8.89-1.19-19.06-4,9.26-1.23,11.32-1.6,22.49a62.16,62.16,0,0,1-6.59,6.39c3.6-3.81,6-8.54,3.18-21-6.57,8.6-3.67,13.6-6.88,23.84a62.13,62.13,0,0,1-8.12,4.94c4.6-3.15,8.42-7.15,8.21-20.95-8.55,7.55-5.87,10-12.64,23a70.81,70.81,0,0,1-10,3.28c5.37-1.88,11.21-5.76,13.79-19.88-12.22,7.65-7.65,8-18.77,21-19.24,4.16-17,8.39-15.58,7.06,3.54-3.21,11-5,15.79-6,13.53,6.41,19.77,7.82,30,2.51.78-.4,1.43-.84,2-1.19s1-.64,1.29-.85S140.88,152.83,140.88,152.83Z"></path><path class="cls-1" d="M90.23,50.58h2.55a4.83,4.83,0,0,1,2.55.51,1.81,1.81,0,0,1,.79,1.63A2,2,0,0,1,95.73,54a1.72,1.72,0,0,1-1.11.63v0a2.22,2.22,0,0,1,1.33.68,2,2,0,0,1,.42,1.35,2.23,2.23,0,0,1-.8,1.81,3.51,3.51,0,0,1-2.24.65h-3.1Zm1.4,3.54H93a2.33,2.33,0,0,0,1.28-.28,1.07,1.07,0,0,0,.41-1,1,1,0,0,0-.44-.87,2.7,2.7,0,0,0-1.38-.27H91.63Zm0,1.13V58h1.49a2.23,2.23,0,0,0,1.33-.33,1.25,1.25,0,0,0,.45-1.07,1.15,1.15,0,0,0-.46-1,2.46,2.46,0,0,0-1.39-.32Z"></path><path class="cls-1" d="M100.84,59.26a3.14,3.14,0,0,1-2.37-.88A3.39,3.39,0,0,1,97.62,56a3.73,3.73,0,0,1,.79-2.5,2.76,2.76,0,0,1,2.18-.91,2.65,2.65,0,0,1,2,.78,3,3,0,0,1,.75,2.15v.74H99a2.12,2.12,0,0,0,.51,1.45,1.76,1.76,0,0,0,1.35.51,5.1,5.1,0,0,0,1.07-.11A5.39,5.39,0,0,0,103,57.7v1.12a4.53,4.53,0,0,1-1,.34A6,6,0,0,1,100.84,59.26Zm-.25-5.67a1.43,1.43,0,0,0-1.06.41,2,2,0,0,0-.47,1.22H102a1.76,1.76,0,0,0-.38-1.22A1.35,1.35,0,0,0,100.59,53.59Z"></path><path class="cls-1" d="M109.28,57.3a1.66,1.66,0,0,1-.7,1.45,3.29,3.29,0,0,1-2,.51,4.73,4.73,0,0,1-2.08-.39V57.68a5.2,5.2,0,0,0,2.13.53c.85,0,1.27-.26,1.27-.77a.57.57,0,0,0-.14-.41,1.52,1.52,0,0,0-.46-.34,7.65,7.65,0,0,0-.9-.4,4.14,4.14,0,0,1-1.51-.87,1.57,1.57,0,0,1-.4-1.12,1.5,1.5,0,0,1,.67-1.3,3.26,3.26,0,0,1,1.83-.46,5.15,5.15,0,0,1,2.16.47l-.44,1a5,5,0,0,0-1.77-.43c-.72,0-1.09.21-1.09.62a.63.63,0,0,0,.29.52,6.46,6.46,0,0,0,1.24.58,5.4,5.4,0,0,1,1.16.57,1.76,1.76,0,0,1,.54.59A1.7,1.7,0,0,1,109.28,57.3Z"></path><path class="cls-1" d="M113.18,58.15a3.6,3.6,0,0,0,1-.16v1a3.08,3.08,0,0,1-.59.16,3.67,3.67,0,0,1-.75.07c-1.3,0-2-.69-2-2.06V53.71H110V53.1l.95-.51.47-1.37h.85v1.44h1.84v1.05h-1.84v3.46a1,1,0,0,0,.25.74A.88.88,0,0,0,113.18,58.15Z"></path><path class="cls-1" d="M87.34,121.36h-12v-2.52l4.3-4.34c1.28-1.31,2.11-2.21,2.5-2.72a5.81,5.81,0,0,0,.84-1.4,3.58,3.58,0,0,0,.26-1.33,2,2,0,0,0-.57-1.54,2.18,2.18,0,0,0-1.52-.5,4.43,4.43,0,0,0-1.93.45,10.52,10.52,0,0,0-2,1.3l-2-2.33a13.39,13.39,0,0,1,2.1-1.52,7.62,7.62,0,0,1,1.82-.69,9.33,9.33,0,0,1,2.2-.24,6.55,6.55,0,0,1,2.84.59,4.52,4.52,0,0,1,1.91,1.64,4.38,4.38,0,0,1,.68,2.41,5.85,5.85,0,0,1-.42,2.22A8.42,8.42,0,0,1,85.15,113a31.14,31.14,0,0,1-3.07,3.11l-2.21,2.07v.17h7.47Z"></path><path class="cls-1" d="M100.94,112.8q0,4.49-1.47,6.64a5.71,5.71,0,0,1-9-.07c-1-1.48-1.5-3.68-1.5-6.57s.49-5.26,1.46-6.69a5.7,5.7,0,0,1,9,.1Q100.95,108.46,100.94,112.8Zm-8.38,0a13.34,13.34,0,0,0,.55,4.51,1.91,1.91,0,0,0,3.66,0,12.91,12.91,0,0,0,.56-4.5,12.88,12.88,0,0,0-.56-4.53,1.92,1.92,0,0,0-1.83-1.38,1.88,1.88,0,0,0-1.82,1.38A13.13,13.13,0,0,0,92.56,112.8Z"></path><path class="cls-1" d="M114.74,121.36h-12v-2.52l4.3-4.34c1.27-1.31,2.11-2.21,2.5-2.72a5.81,5.81,0,0,0,.84-1.4,3.58,3.58,0,0,0,.26-1.33,2,2,0,0,0-.57-1.54,2.18,2.18,0,0,0-1.52-.5,4.4,4.4,0,0,0-1.93.45,10.2,10.2,0,0,0-2,1.3l-2-2.33a13.39,13.39,0,0,1,2.1-1.52,7.62,7.62,0,0,1,1.82-.69,9.27,9.27,0,0,1,2.2-.24,6.55,6.55,0,0,1,2.84.59,4.58,4.58,0,0,1,1.91,1.64,4.38,4.38,0,0,1,.68,2.41,5.85,5.85,0,0,1-.42,2.22,8.42,8.42,0,0,1-1.29,2.13,31.52,31.52,0,0,1-3.08,3.11l-2.2,2.07v.17h7.47Z"></path><path class="cls-1" d="M125.41,121.36h-3.62v-9.91l0-1.63,0-1.78c-.6.6-1,1-1.25,1.18l-2,1.58-1.74-2.18,5.52-4.39h3Z"></path><path class="cls-1" d="M87.78,98.45a1.87,1.87,0,0,0,.6-.11v.72a2.27,2.27,0,0,1-.88.16,1.11,1.11,0,0,1-.84-.29,1.32,1.32,0,0,1-.26-.88V96.36h-.46V96l.53-.33.28-.74h.61v.75h1v.72h-1v1.69a.42.42,0,0,0,.11.31A.5.5,0,0,0,87.78,98.45Z"></path><path class="cls-1" d="M92.33,99.15h-1V97.1c0-.51-.18-.76-.56-.76a.64.64,0,0,0-.58.27,1.69,1.69,0,0,0-.18.89v1.65h-1V94.26h1v1c0,.08,0,.26,0,.55l0,.28h0a1.13,1.13,0,0,1,1-.51,1.25,1.25,0,0,1,.94.33,1.29,1.29,0,0,1,.32,1Z"></path><path class="cls-1" d="M94.91,99.22a1.83,1.83,0,0,1-1.33-.47,1.78,1.78,0,0,1-.48-1.33,1.91,1.91,0,0,1,.45-1.36A1.8,1.8,0,0,1,95.93,96a1.62,1.62,0,0,1,.41,1.17v.47H94.07a1,1,0,0,0,.25.63.82.82,0,0,0,.63.23,2.91,2.91,0,0,0,.6-.06,3.81,3.81,0,0,0,.59-.21V99a2.86,2.86,0,0,1-.54.19A3.4,3.4,0,0,1,94.91,99.22Zm-.14-3a.62.62,0,0,0-.48.19.88.88,0,0,0-.19.55h1.34a.78.78,0,0,0-.18-.55A.63.63,0,0,0,94.77,96.26Z"></path><path class="cls-1" d="M100.26,99.15h-1V97.1a1.09,1.09,0,0,0-.13-.57.45.45,0,0,0-.4-.19.58.58,0,0,0-.54.27,1.81,1.81,0,0,0-.16.89v1.65h-1V95.64h.73l.13.45h0a1,1,0,0,1,.41-.38,1.35,1.35,0,0,1,.62-.13,1.09,1.09,0,0,1,1.06.51h.09a1,1,0,0,1,.41-.38,1.41,1.41,0,0,1,.62-.13,1.26,1.26,0,0,1,.91.3,1.35,1.35,0,0,1,.3,1v2.29h-1V97.1a1.1,1.1,0,0,0-.12-.57.45.45,0,0,0-.4-.19.6.6,0,0,0-.53.25,1.41,1.41,0,0,0-.18.8Z"></path><path class="cls-1" d="M105,99.22a1.83,1.83,0,0,1-1.33-.47,1.78,1.78,0,0,1-.48-1.33,1.91,1.91,0,0,1,.45-1.36,1.57,1.57,0,0,1,1.22-.48A1.53,1.53,0,0,1,106,96a1.58,1.58,0,0,1,.42,1.17v.47h-2.27a1,1,0,0,0,.25.63.82.82,0,0,0,.63.23,2.91,2.91,0,0,0,.6-.06,3.81,3.81,0,0,0,.59-.21V99a2.86,2.86,0,0,1-.54.19A3.4,3.4,0,0,1,105,99.22Zm-.14-3a.62.62,0,0,0-.48.19.88.88,0,0,0-.19.55h1.34a.78.78,0,0,0-.18-.55A.64.64,0,0,0,104.89,96.26Z"></path><path class="cls-1" d="M110.85,96.36H110v2.79h-1V96.36h-.52V95.9l.52-.26v-.26a1.12,1.12,0,0,1,.3-.87,1.33,1.33,0,0,1,1-.28,2.42,2.42,0,0,1,.88.15l-.25.7a1.78,1.78,0,0,0-.53-.09.35.35,0,0,0-.3.12.5.5,0,0,0-.09.31v.22h.83Z"></path><path class="cls-1" d="M114.59,97.39a1.89,1.89,0,0,1-.45,1.34,1.65,1.65,0,0,1-1.26.49A1.83,1.83,0,0,1,112,99a1.46,1.46,0,0,1-.59-.64,2.13,2.13,0,0,1-.21-1,1.89,1.89,0,0,1,.45-1.34,1.64,1.64,0,0,1,1.26-.47,1.8,1.8,0,0,1,.89.21,1.49,1.49,0,0,1,.6.64A2.06,2.06,0,0,1,114.59,97.39Zm-2.42,0a1.43,1.43,0,0,0,.17.79.6.6,0,0,0,.55.27.62.62,0,0,0,.56-.27,1.53,1.53,0,0,0,.16-.79,1.37,1.37,0,0,0-.17-.78.58.58,0,0,0-.55-.26.61.61,0,0,0-.56.26A1.47,1.47,0,0,0,112.17,97.39Z"></path><path class="cls-1" d="M117.35,95.58a1.52,1.52,0,0,1,.32,0l-.07.9a1.17,1.17,0,0,0-.29,0,1,1,0,0,0-.71.24.84.84,0,0,0-.26.66v1.78h-1V95.64h.72l.14.59h0a1.33,1.33,0,0,1,.44-.47A1,1,0,0,1,117.35,95.58Z"></path><path class="cls-1" d="M76.17,67.74a2.13,2.13,0,0,0-1.79.84,3.8,3.8,0,0,0-.64,2.34q0,3.09,2.61,3.09a6.08,6.08,0,0,0,1.54-.2,15.12,15.12,0,0,0,1.49-.48v2.45a9,9,0,0,1-3.38.59A5.71,5.71,0,0,1,71.86,75a5.44,5.44,0,0,1-1.43-4.07A6,6,0,0,1,71.12,68a4.76,4.76,0,0,1,2-1.94,6.63,6.63,0,0,1,3.08-.68,9.34,9.34,0,0,1,3.69.76l-1,2.28a11.59,11.59,0,0,0-1.32-.47A5,5,0,0,0,76.17,67.74Z"></path><path class="cls-1" d="M81.7,76.23V65.52h3.22v8.37h4.59v2.34Z"></path><path class="cls-1" d="M98.5,76.23H91.42V65.52H98.5v2.32H94.64v1.69h3.57v2.32H94.64v2H98.5Z"></path><path class="cls-1" d="M107.9,76.23l-.59-2h-3.87l-.61,2H99.3l3.88-10.76h4.3l3.94,10.76Zm-1.26-4.38-.51-1.76c-.12-.39-.27-.9-.44-1.52s-.28-1.06-.34-1.33c0,.25-.14.66-.29,1.23s-.46,1.7-1,3.38Z"></path><path class="cls-1" d="M124.06,76.23h-4.23l-4.35-7.55h-.07c.1,1.19.15,2.1.15,2.72v4.83h-2.85V65.52h4.21L121.25,73h0c-.07-1.08-.11-1.95-.11-2.6V65.52h2.87Z"></path><path class="cls-1" d="M68.44,90.23,66,82.51h-.07c.11,1.32.17,2.34.17,3.07v4.65H63.25V79.52h4.29L70,87.12h.07l2.43-7.6h4.3V90.23h-3v-4.7c0-.24,0-.51,0-.81s0-1,.11-2.19h-.07l-2.4,7.7Z"></path><path class="cls-1" d="M79.39,90.23V79.52h3.24V90.23Z"></path><path class="cls-1" d="M96.55,90.23H92.33L88,82.68H87.9c.11,1.19.16,2.1.16,2.72v4.83H85.2V79.52h4.21L93.75,87h0c-.08-1.08-.12-1.95-.12-2.6V79.52h2.87Z"></path><path class="cls-1" d="M99.13,90.23V79.52h3.24V90.23Z"></path><path class="cls-1" d="M110.14,90.23l-2.44-7.72h-.08c.12,1.32.18,2.34.18,3.07v4.65h-2.86V79.52h4.29l2.49,7.6h.06l2.44-7.6h4.3V90.23h-3v-4.7c0-.24,0-.51,0-.81s.05-1,.11-2.19h-.07l-2.41,7.7Z"></path><path class="cls-1" d="M128.4,90.23l-.59-2h-3.87l-.6,2H119.8l3.89-10.76H128l3.94,10.76Zm-1.26-4.38-.51-1.76c-.12-.39-.26-.9-.44-1.52s-.28-1.06-.33-1.33c0,.25-.15.66-.29,1.23s-.47,1.7-1,3.38Z"></path><path class="cls-1" d="M133.21,90.23V79.52h3.22v8.37H141v2.34Z"></path><path class="cls-1" d="M132.69,76.38l-.45-.42a2.9,2.9,0,0,1-1.27.46,5.66,5.66,0,0,1-.75,0,3.4,3.4,0,0,1-1.28-.22,1.88,1.88,0,0,1-.86-.62,1.48,1.48,0,0,1-.29-.91A1.81,1.81,0,0,1,129,73.05a2.34,2.34,0,0,1-.45-.61,1.7,1.7,0,0,1-.16-.73,1.21,1.21,0,0,1,.57-1,2.73,2.73,0,0,1,1.56-.38,2.56,2.56,0,0,1,1.51.38,1.23,1.23,0,0,1,.54,1,1.36,1.36,0,0,1-.3.85,2.76,2.76,0,0,1-.92.73l.92.78a2.89,2.89,0,0,0,.48-1.07h1.86a4.87,4.87,0,0,1-.44,1.14,4.79,4.79,0,0,1-.66,1L135,76.38Zm-3.05-1.79a.54.54,0,0,0,.2.43.86.86,0,0,0,.55.16,1.6,1.6,0,0,0,.46-.06,1.05,1.05,0,0,0,.3-.14l-1.14-1A.76.76,0,0,0,129.64,74.59ZM131,71.71a.32.32,0,0,0-.13-.29.58.58,0,0,0-.33-.09.65.65,0,0,0-.34.1.39.39,0,0,0-.14.33.87.87,0,0,0,.4.64,1.09,1.09,0,0,0,.4-.31A.64.64,0,0,0,131,71.71Z"></path></svg> 